<svg xmlns="http://www.w3.org/2000/svg">

    <symbol id="search-bar" viewBox="0 0 20 20">
        <g>
            <path
                d="M18.949 20.027l-5.767-5.784a6.59 6.59 0 0 1-1.094.798 8.525 8.525 0 0 1-1.243.598 7.125 7.125 0 0 1-1.367.374c-.481.083-.953.125-1.417.125a7.716 7.716 0 0 1-3.157-.648 8.32 8.32 0 0 1-2.56-1.745 8.001 8.001 0 0 1-1.715-2.568 7.912 7.912 0 0 1-.622-3.116 8.041 8.041 0 0 1 2.337-5.734A7.998 7.998 0 0 1 8.06-.016c1.094 0 2.13.208 3.107.623.978.416 1.831.99 2.56 1.72a8.387 8.387 0 0 1 1.74 2.568c.431.98.647 2.036.647 3.166 0 .466-.042.94-.124 1.42-.083.483-.208.94-.373 1.372a8.704 8.704 0 0 1-.597 1.246 6.604 6.604 0 0 1-.795 1.097l5.767 5.784zm-17.55-9.174a7.144 7.144 0 0 0 1.541 2.293 7.386 7.386 0 0 0 2.312 1.57 6.959 6.959 0 0 0 2.81.574c.993 0 1.92-.19 2.783-.573a7.485 7.485 0 0 0 2.287-1.57 7.518 7.518 0 0 0 1.566-2.294c.38-.864.572-1.795.572-2.792 0-.997-.191-1.936-.572-2.817a7.448 7.448 0 0 0-1.566-2.318 7.158 7.158 0 0 0-2.287-1.546A7.06 7.06 0 0 0 8.061.83a7.24 7.24 0 0 0-2.809.549 7.087 7.087 0 0 0-3.853 3.864 7.283 7.283 0 0 0-.547 2.817 7.1 7.1 0 0 0 .547 2.792z" />
        </g>
    </symbol>

    <symbol id="arrow-down" viewBox="0 0 15 8">
        <g>
            <path fill="#fff" d="M4.125 4.651L.75 1.276l.844-.844L7.5 6.34 13.406.362l.844.844-6.75 6.82-.844-.843z" />
        </g>
    </symbol>

    <symbol id="search" viewBox="0 0 58 57">
        <g>
            <path
                d="M54.3124,56.76558l-16.31244,-16.31268c-0.93824,0.8439 -1.96874,1.5954 -3.09377,2.25016c-1.12503,0.65705 -2.29833,1.2194 -3.51562,1.68755c-1.21944,0.47019 -2.50926,0.82176 -3.86721,1.05469c-1.36009,0.23497 -2.69605,0.35156 -4.00776,0.35156c-3.18829,0 -6.16554,-0.60868 -8.92972,-1.82833c-2.76632,-1.21711 -5.18117,-2.85858 -7.24218,-4.92188c-2.06326,-2.06101 -3.68042,-4.47562 -4.85158,-7.24205c-1.17331,-2.76414 -1.75781,-5.69527 -1.75781,-8.78908c0,-3.18596 0.58451,-6.16343 1.75781,-8.9296c1.17116,-2.76414 2.78832,-5.179 4.85158,-7.2423c2.06101,-2.06101 4.47586,-3.6783 7.24218,-4.85162c2.76418,-1.17103 5.74143,-1.75782 8.92972,-1.75782c3.09377,0 6.02263,0.58679 8.78906,1.75782c2.76418,1.17332 5.17892,2.79061 7.24218,4.85162c2.06101,2.0633 3.70241,4.47817 4.92185,7.2423c1.21729,2.76617 1.82809,5.74364 1.82809,8.9296c0,1.31384 -0.11866,2.64983 -0.35148,4.00772c-0.23518,1.36018 -0.58676,2.65009 -1.05475,3.86719c-0.47024,1.21965 -1.03265,2.39068 -1.68743,3.51563c-0.65703,1.12495 -1.40634,2.15775 -2.25005,3.09381l16.31255,16.31243zM4.6718,30.89043c1.0305,2.43905 2.48297,4.59451 4.35945,6.46891c1.87422,1.87645 4.05389,3.35296 6.53901,4.42954c2.48287,1.07887 5.13278,1.61729 7.94535,1.61729c2.81246,0 5.43598,-0.53842 7.87497,-1.61729c2.43673,-1.07658 4.59226,-2.5531 6.46874,-4.42954c1.87433,-1.87441 3.35083,-4.02987 4.42972,-6.46891c1.07664,-2.43676 1.61716,-5.06241 1.61716,-7.87491c0,-2.81251 -0.54052,-5.4603 -1.61716,-7.94543c-1.07889,-2.48284 -2.55539,-4.66248 -4.42972,-6.53892c-1.87647,-1.87441 -4.032,-3.32674 -6.46874,-4.35954c-2.43899,-1.03051 -5.06251,-1.54678 -7.87497,-1.54678c-2.81256,0 -5.46248,0.51627 -7.94535,1.54678c-2.48512,1.0328 -4.66479,2.48513 -6.53901,4.35954c-1.87647,1.87645 -3.32894,4.05609 -4.35945,6.53892c-1.03265,2.48513 -1.54688,5.13292 -1.54688,7.94543c0,2.81251 0.51423,5.43816 1.54688,7.87491z"
                fill="#5474fd" fill-opacity="1"></path>
        </g>
    </symbol>

    <symbol id="done" viewBox="0 0 60 61">
        <g>
            <path
                d="M41.67179,2.86699c3.65628,1.54703 6.84232,3.68059 9.5625,6.3984c2.71804,2.72035 4.85158,5.90631 6.39846,9.56272c1.54688,3.65615 2.32033,7.54753 2.32033,11.67185c0,4.12635 -0.77344,8.01544 -2.32033,11.67185c-1.54688,3.65615 -3.68042,6.84441 -6.39846,9.56247c-2.72019,2.7201 -5.90622,4.85162 -9.5625,6.3984c-3.65617,1.54678 -7.54763,2.32042 -11.67179,2.32042c-4.12652,0 -8.01573,-0.77364 -11.6719,-2.32042c-3.65628,-1.54678 -6.84446,-3.6783 -9.5625,-6.3984c-2.72019,-2.71806 -4.85158,-5.90631 -6.39846,-9.56247c-1.54688,-3.65641 -2.32033,-7.5455 -2.32033,-11.67185c0,-4.12431 0.77344,-8.01569 2.32033,-11.67185c1.54688,-3.65641 3.67827,-6.84237 6.39846,-9.56272c2.71804,-2.7178 5.90622,-4.85137 9.5625,-6.3984c3.65617,-1.54678 7.54538,-2.32016 11.6719,-2.32016c4.12416,0 8.01562,0.77339 11.67179,2.32016zM40.7578,55.88277c3.32658,-1.45258 6.25781,-3.397 8.78906,-5.83605c2.43673,-2.5312 4.38133,-5.46005 5.83584,-8.78908c1.45247,-3.32674 2.17978,-6.91263 2.17978,-10.75768c0,-3.84301 -0.72731,-7.42916 -2.17978,-10.75793c-1.45451,-3.32674 -3.39911,-6.25788 -5.83584,-8.78908c-2.53125,-2.43676 -5.46248,-4.38117 -8.78906,-5.8358c-3.32894,-1.45258 -6.91484,-2.1799 -10.7578,-2.1799c-3.84521,0 -7.43122,0.72731 -10.75791,2.1799c-3.32884,1.45462 -6.25781,3.39904 -8.78906,5.8358c-2.43888,2.5312 -4.38348,5.46234 -5.83584,8.78908c-1.45462,3.32878 -2.17978,6.91492 -2.17978,10.75793c0,3.84505 0.72516,7.43094 2.17978,10.75768c1.45236,3.32903 3.39696,6.25788 5.83584,8.78908c2.53125,2.43905 5.46023,4.38347 8.78906,5.83605c3.32669,1.45462 6.9127,2.17964 10.75791,2.17964c3.84296,0 7.42886,-0.72502 10.7578,-2.17964zM46.24217,19.24994c0.51413,0 0.96012,0.18889 1.33595,0.56235c0.2812,0.37575 0.42186,0.82176 0.42186,1.33599c0,0.51627 -0.18904,0.91417 -0.56251,1.19547l-20.53124,19.96858c-0.09452,0.18889 -0.25932,0.30549 -0.49224,0.35156c-0.23507,0.04837 -0.446,0.07026 -0.63279,0.07026c-0.28131,0 -0.54052,-0.02189 -0.77344,-0.07026c-0.23507,-0.04608 -0.39986,-0.16267 -0.49224,-0.35156l-8.01562,-8.01569c-0.37572,-0.37346 -0.56241,-0.81947 -0.56241,-1.33574c0,-0.51423 0.18668,-0.91417 0.56241,-1.19547c0.28131,-0.37346 0.67903,-0.56235 1.19541,-0.56235c0.51413,0 0.96012,0.18889 1.33585,0.56235l6.75005,6.74996l19.26566,-18.70311c0.2812,-0.37346 0.67892,-0.56235 1.1953,-0.56235z"
                fill="#ff6363" fill-opacity="1"></path>
        </g>
    </symbol>

    <symbol id="thumb" viewBox="0 0 62 59">
        <g>
            <path
                d="M61.30459,30.48413c-0.18893,0.5626 -0.47014,1.07887 -0.84372,1.54703c-0.37572,0.47019 -0.79758,0.84365 -1.26557,1.12495c-0.47024,0.2813 -0.98437,0.51627 -1.54688,0.70313c0.2812,0.47019 0.51413,0.96253 0.70306,1.47651c0.18679,0.51653 0.28131,1.10306 0.28131,1.75782c0,0.5626 -0.09452,1.12495 -0.28131,1.68755c-0.18893,0.5626 -0.42186,1.07887 -0.70306,1.54678c-0.37572,0.37575 -0.79769,0.72731 -1.26568,1.05469c-0.47024,0.32967 -0.93824,0.58679 -1.40623,0.77364c0.2812,0.47019 0.51413,0.98417 0.70317,1.54678c0.18668,0.5626 0.2812,1.12495 0.2812,1.68755c0,0.65679 -0.09452,1.24358 -0.2812,1.75782c-0.18904,0.51627 -0.42197,1.00836 -0.70317,1.47651c-0.37572,0.47019 -0.79758,0.86783 -1.26568,1.19521c-0.47014,0.32967 -0.98437,0.54071 -1.54678,0.63286c0.37347,0.47019 0.65478,0.96253 0.84372,1.47651c0.18679,0.51653 0.2812,1.10306 0.2812,1.75782c0,0.65705 -0.14055,1.3141 -0.42186,1.96886c-0.2812,0.65705 -0.65693,1.2194 -1.12503,1.68755c-0.56241,0.47019 -1.17331,0.84365 -1.82809,1.12495c-0.65693,0.2813 -1.36009,0.42182 -2.1094,0.42182h-18.5625c-0.65693,0 -1.40623,-0.09215 -2.24994,-0.2813c-0.84382,-0.1866 -1.73593,-0.4679 -2.67191,-0.84365c-0.93824,-0.2813 -1.87647,-0.63286 -2.81246,-1.05469c-0.93824,-0.42182 -1.87647,-0.81972 -2.81256,-1.19547c-1.12503,-0.4679 -2.22806,-0.9358 -3.3047,-1.40625c-1.07878,-0.4679 -1.85223,-0.70313 -2.32033,-0.70313h-12.79682v-27.42167l1.12503,-0.14078c5.34371,0 8.99999,0 10.96873,0c0.84372,0 1.61716,-0.09215 2.32033,-0.2813c0.70306,-0.1866 1.42822,-0.56235 2.17967,-1.12495c0.84372,-0.4679 1.80395,-1.12495 2.88284,-1.9686c1.07664,-0.8439 2.36646,-1.87441 3.8671,-3.09381c2.90483,-2.43676 4.61651,-5.48449 5.13289,-9.14064c0.51413,-3.65615 0.77344,-5.76553 0.77344,-6.32814c0,-0.5626 0.14055,-1.10077 0.42186,-1.61729c0.2812,-0.51398 0.65478,-0.91391 1.12503,-1.19521c0.46799,-0.37346 0.96012,-0.63286 1.4765,-0.77339c0.51413,-0.14078 1.00636,-0.21104 1.47661,-0.21104c0.74919,0 1.4985,0.09445 2.24994,0.2813c0.7493,0.18889 1.45236,0.61097 2.1094,1.26573c0.65478,0.65679 1.17116,1.52488 1.54688,2.60147c0.37358,1.07887 0.56251,2.50931 0.56251,4.28902c0,1.59514 -0.11866,3.11799 -0.35158,4.57032c-0.23507,1.45462 -0.54052,2.83669 -0.9141,4.1485c-0.2812,1.31384 -0.63279,2.50931 -1.05464,3.58589c-0.42186,1.07887 -0.77344,1.99304 -1.05464,2.74224h19.1249c0.84382,0 1.56888,0.11863 2.17978,0.35156c0.60865,0.23497 1.1953,0.58653 1.75781,1.05469c0.46799,0.47019 0.81958,1.00861 1.05464,1.61704c0.23292,0.61097 0.35158,1.28991 0.35158,2.03912c0,0.65705 -0.09452,1.26573 -0.28131,1.82808zM57.50777,31.3983c0.37358,-0.14052 0.65478,-0.35156 0.84372,-0.63286c0.28131,-0.2813 0.51423,-0.5845 0.70317,-0.91391c0.18679,-0.32738 0.2812,-0.72527 0.2812,-1.19547c0,-0.7492 -0.2812,-1.40625 -0.84372,-1.9686c-0.56251,-0.5626 -1.31396,-0.8439 -2.25005,-0.8439h-8.43748c0,0.09445 0,0.09445 0,0h-14.48436l0.84372,-1.68755c2.62363,-6.46866 3.93759,-11.67185 3.93759,-15.6093c0,-3.09381 -0.51638,-4.8977 -1.54688,-5.41397c-1.03276,-0.51423 -1.87647,-0.77339 -2.53125,-0.77339c-0.28131,0 -0.70317,0.14052 -1.26568,0.42182c-0.56251,0.2813 -0.84372,0.65705 -0.84372,1.12495c0,0.5626 -0.04839,1.5007 -0.14066,2.81251c-0.09441,1.3141 -0.37572,2.81251 -0.84372,4.50006c-0.47024,1.68755 -1.14917,3.42322 -2.03912,5.20319c-0.892,1.78175 -2.13354,3.32878 -3.72655,4.64058c-1.59516,1.31384 -2.93112,2.41461 -4.00776,3.30459c-1.07889,0.89202 -2.0874,1.61729 -3.02349,2.17964c-0.93824,0.5626 -1.87647,0.98443 -2.81246,1.26573c-0.93824,0.2813 -1.92261,0.42182 -2.95311,0.42182c-0.75145,0 -1.57102,0 -2.46098,0c-0.8921,0 -1.80609,0 -2.74218,0c-0.84372,0 -1.66554,0 -2.46087,0c-0.79769,0 -1.47661,0 -2.03912,0v22.78134h10.40622c0.65478,0 1.52274,0.21079 2.60164,0.63261c1.07664,0.42208 2.41259,0.96253 4.00776,1.61729c0.7493,0.37575 1.56888,0.77339 2.46098,1.19521c0.88985,0.42208 1.75781,0.77364 2.60153,1.05469c0.93609,0.2813 1.77981,0.54071 2.53125,0.77364c0.7493,0.23497 1.40623,0.35156 1.96874,0.35156h18.5625c0.46799,0 0.88996,-0.09241 1.26568,-0.2813c0.37347,-0.18686 0.70306,-0.42182 0.98437,-0.70313c0.2812,-0.18686 0.49213,-0.46816 0.63279,-0.8439c0.14066,-0.37346 0.21093,-0.7492 0.21093,-1.12495c0,-0.4679 -0.07027,-0.86554 -0.21093,-1.19521c-0.14066,-0.32738 -0.35158,-0.63286 -0.63279,-0.91417c-0.28131,-0.28105 -0.6109,-0.49209 -0.98437,-0.63261c-0.37572,-0.14078 -0.79769,-0.21104 -1.26568,-0.21104h-0.2812v-2.39068h3.23431c0.37358,0 0.7493,-0.07026 1.12503,-0.21079c0.37358,-0.14078 0.70317,-0.35156 0.98437,-0.63286c0.18679,-0.2813 0.37358,-0.60868 0.56251,-0.98443c0.18679,-0.37346 0.2812,-0.7492 0.2812,-1.12495c0,-0.37371 -0.09441,-0.74946 -0.2812,-1.12495c-0.18893,-0.37371 -0.37572,-0.70313 -0.56251,-0.98443c-0.2812,-0.18686 -0.61079,-0.37371 -0.98437,-0.5626c-0.37572,-0.1866 -0.75145,-0.2813 -1.12503,-0.2813h-0.98437v-2.39043h3.51563c0.37358,0 0.7493,-0.07052 1.12503,-0.21104c0.37358,-0.14052 0.70317,-0.35156 0.98437,-0.63286c0.28131,-0.2813 0.51413,-0.60868 0.70317,-0.98443c0.18679,-0.37346 0.2812,-0.7492 0.2812,-1.12495c0,-0.4679 -0.09441,-0.88973 -0.2812,-1.26547c-0.18904,-0.37371 -0.42186,-0.65476 -0.70317,-0.8439c-0.2812,-0.2813 -0.61079,-0.51398 -0.98437,-0.70313c-0.37572,-0.1866 -0.75145,-0.2813 -1.12503,-0.2813h-1.12492v-2.39043h4.07803c0.4681,0 0.88996,-0.07052 1.26568,-0.21104z"
                fill="#00a2ff" fill-opacity="1"></path>
        </g>
    </symbol>

    <symbol id="unite" viewBox="0 0 797 115">
        <defs>
            <clipPath id="ClipPath1043">
                <path d="M9.99994,104.99971v0c0,0 192.47714,-212.45819 393.05863,0c0,0 176.26866,-213.75371 383.94138,0"
                    fill="#ffffff"></path>
            </clipPath>
        </defs>
        <g>
            <g opacity="0.5">
                <path d="M9.99994,104.99971v0c0,0 192.47714,-212.45819 393.05863,0c0,0 176.26866,-213.75371 383.94138,0"
                    fill-opacity="0" fill="#ffffff" stroke-dashoffset="0" stroke-dasharray="0 5" stroke-linejoin="miter"
                    stroke-linecap="round" stroke-opacity="1" stroke="#ffffff" stroke-miterlimit="20" stroke-width="2"
                    clip-path="url(&quot;#ClipPath1043&quot;)"></path>
            </g>
        </g>
    </symbol>

    <symbol id="facebook" viewBox="0 0 320 512">
        <path fill="currentColor"
            d="M279.14 288l14.22-92.66h-88.91v-60.13c0-25.35 12.42-50.06 52.24-50.06h40.42V6.26S260.43 0 225.36 0c-73.22 0-121.08 44.38-121.08 124.72v70.62H22.89V288h81.39v224h100.17V288z">
        </path>
    </symbol>

    <symbol id="twitter" viewBox="0 0 512 512">
        <path fill="currentColor"
            d="M459.37 151.716c.325 4.548.325 9.097.325 13.645 0 138.72-105.583 298.558-298.558 298.558-59.452 0-114.68-17.219-161.137-47.106 8.447.974 16.568 1.299 25.34 1.299 49.055 0 94.213-16.568 130.274-44.832-46.132-.975-84.792-31.188-98.112-72.772 6.498.974 12.995 1.624 19.818 1.624 9.421 0 18.843-1.3 27.614-3.573-48.081-9.747-84.143-51.98-84.143-102.985v-1.299c13.969 7.797 30.214 12.67 47.431 13.319-28.264-18.843-46.781-51.005-46.781-87.391 0-19.492 5.197-37.36 14.294-52.954 51.655 63.675 129.3 105.258 216.365 109.807-1.624-7.797-2.599-15.918-2.599-24.04 0-57.828 46.782-104.934 104.934-104.934 30.213 0 57.502 12.67 76.67 33.137 23.715-4.548 46.456-13.32 66.599-25.34-7.798 24.366-24.366 44.833-46.132 57.827 21.117-2.273 41.584-8.122 60.426-16.243-14.292 20.791-32.161 39.308-52.628 54.253z">
        </path>
    </symbol>

    <symbol id="linkedin" viewBox="0 0 448 512">
        <path fill="currentColor"
            d="M100.28 448H7.4V148.9h92.88zM53.79 108.1C24.09 108.1 0 83.5 0 53.8a53.79 53.79 0 0 1 107.58 0c0 29.7-24.1 54.3-53.79 54.3zM447.9 448h-92.68V302.4c0-34.7-.7-79.2-48.29-79.2-48.29 0-55.69 37.7-55.69 76.7V448h-92.78V148.9h89.08v40.8h1.3c12.4-23.5 42.69-48.3 87.88-48.3 94 0 111.28 61.9 111.28 142.3V448z">
        </path>
    </symbol>

    <symbol id="youtube" viewBox="0 0 576 512">
        <path fill="currentColor"
            d="M549.655 124.083c-6.281-23.65-24.787-42.276-48.284-48.597C458.781 64 288 64 288 64S117.22 64 74.629 75.486c-23.497 6.322-42.003 24.947-48.284 48.597-11.412 42.867-11.412 132.305-11.412 132.305s0 89.438 11.412 132.305c6.281 23.65 24.787 41.5 48.284 47.821C117.22 448 288 448 288 448s170.78 0 213.371-11.486c23.497-6.321 42.003-24.171 48.284-47.821 11.412-42.867 11.412-132.305 11.412-132.305s0-89.438-11.412-132.305zm-317.51 213.508V175.185l142.739 81.205-142.739 81.201z">
        </path>
    </symbol>

    <symbol id="pinterest" viewBox="0 0 496 512">
        <path fill="currentColor"
            d="M496 256c0 137-111 248-248 248-25.6 0-50.2-3.9-73.4-11.1 10.1-16.5 25.2-43.5 30.8-65 3-11.6 15.4-59 15.4-59 8.1 15.4 31.7 28.5 56.8 28.5 74.8 0 128.7-68.8 128.7-154.3 0-81.9-66.9-143.2-152.9-143.2-107 0-163.9 71.8-163.9 150.1 0 36.4 19.4 81.7 50.3 96.1 4.7 2.2 7.2 1.2 8.3-3.3.8-3.4 5-20.3 6.9-28.1.6-2.5.3-4.7-1.7-7.1-10.1-12.5-18.3-35.3-18.3-56.6 0-54.7 41.4-107.6 112-107.6 60.9 0 103.6 41.5 103.6 100.9 0 67.1-33.9 113.6-78 113.6-24.3 0-42.6-20.1-36.7-44.8 7-29.5 20.5-61.3 20.5-82.6 0-19-10.2-34.9-31.4-34.9-24.9 0-44.9 25.7-44.9 60.2 0 22 7.4 36.8 7.4 36.8s-24.5 103.8-29 123.2c-5 21.4-3 51.6-.9 71.2C65.4 450.9 0 361.1 0 256 0 119 111 8 248 8s248 111 248 248z">
        </path>
    </symbol>

</svg>